<?xml version="1.0" encoding="UTF-8"?>
<svg width="32px" height="32px" viewBox="0 0 32 32" version="1.1" xmlns="http://www.w3.org/2000/svg" xmlns:xlink="http://www.w3.org/1999/xlink">
    <!-- Generator: Sketch 48.1 (47250) - http://www.bohemiancoding.com/sketch -->
    <title>sketchy-find</title>
    <desc>Created with Sketch.</desc>
    <defs></defs>
    <g id="Launch-Page" stroke="none" stroke-width="1" fill="none" fill-rule="evenodd" transform="translate(-135.000000, -1775.000000)">
        <g id="Discover-and-Track-your-activities" transform="translate(-316.000000, 1050.000000)" fill="#3A76AC" fill-rule="nonzero">
            <g id="Group-10" transform="translate(451.000000, 449.000000)">
                <g id="Feature-list" transform="translate(0.000000, 276.000000)">
                    <g id="Group-7">
                        <g id="sketchy-find">
                            <path d="M31.976,23.0754286 C31.9645714,22.5817143 31.9554286,22.0891429 31.9405714,21.5954286 C31.9074286,20.6182857 31.8617143,19.6377143 31.8331429,18.6594286 C31.7725714,16.6525714 31.7771429,14.6457143 31.7634286,12.6377143 C31.7542857,11.2182857 31.7565714,9.79885714 31.7748571,8.37942857 C31.7954286,6.71085714 31.8605714,5.04457143 31.9165714,3.376 C31.9268571,3.06514286 31.7554286,2.79657143 31.5154286,2.62057143 C31.5748571,2.54057143 31.6274286,2.45714286 31.6582857,2.34742857 C31.7257143,2.10514286 31.6891429,1.83771429 31.5622857,1.62057143 C31.4388571,1.41028571 31.2354286,1.25257143 31,1.18742857 C30.92,1.16571429 30.8274286,1.15314286 30.7314286,1.15314286 C30.5657143,1.15314286 30.3931429,1.19085714 30.2731429,1.28228571 C29.9497143,1.53257143 29.6274286,1.78285714 29.304,2.032 C28.4262857,2.712 27.5668571,3.416 26.6937143,4.10171429 C26.2228571,4.46057143 25.744,4.80914286 25.2697143,5.16342857 C24.7337143,5.56342857 24.2137143,5.98285714 23.6868571,6.39657143 C23.2422857,6.73828571 22.7885714,7.064 22.3451429,7.40342857 C22.0582857,7.62057143 21.7771429,7.84457143 21.4937143,8.06628571 C21.4491429,7.928 21.3794286,7.79885714 21.2628571,7.69942857 C20.6125714,7.14057143 19.9577143,6.592 19.3142857,6.02857143 C18.6845714,5.48114286 18.0422857,4.94742857 17.4171429,4.39428571 C16.7737143,3.82285714 16.1931429,3.18285714 15.5782857,2.58171429 C14.9097143,1.92685714 14.224,1.29028571 13.56,0.630857143 C13.3691429,0.441142857 13.1154286,0.345142857 12.8617143,0.345142857 C12.7691429,0.345142857 12.68,0.371428571 12.5908571,0.396571429 C12.5817143,0.394285714 12.5748571,0.386285714 12.5668571,0.384 C12.4868571,0.362285714 12.4114286,0.352 12.3371429,0.352 C12.1725714,0.352 12.0182857,0.402285714 11.856,0.476571429 C11.8251429,0.492571429 11.7908571,0.505142857 11.7577143,0.521142857 C10.9542857,0.850285714 10.1371429,1.14171429 9.34171429,1.49485714 C8.46857143,1.88342857 7.61371429,2.30971429 6.75542857,2.72457143 C5.84,3.168 4.91657143,3.59885714 4.00342857,4.05142857 C3.12685714,4.48914286 2.232,4.88114286 1.36,5.328 C1.16228571,5.42857143 0.966857143,5.53371429 0.771428571,5.64 C0.518857143,5.77371429 0.36,6.01485714 0.297142857,6.28 C0.174857143,6.44 0.0891428571,6.62971429 0.0868571429,6.84342857 C0.0617142857,8.864 0.105142857,10.88 0.168,12.9005714 C0.198857143,13.8811429 0.203428571,14.8628571 0.224,15.8457143 C0.246857143,16.8102857 0.266285714,17.7748571 0.273142857,18.7405714 C0.284571429,20.3714286 0.308571429,21.9988571 0.308571429,23.6297143 C0.308571429,24.4388571 0.301714286,25.2491429 0.270857143,26.056 C0.24,26.8697143 0.129142857,27.6845714 0.0605714286,28.496 C0.048,28.64 0.0834285714,28.7737143 0.142857143,28.8971429 C0.0582857143,29.0537143 0,29.2274286 0,29.3851429 C0,29.6491429 0.107428571,29.9074286 0.293714286,30.0937143 C0.482285714,30.2822857 0.737142857,30.3874286 1.00228571,30.3874286 C1.29142857,30.3874286 1.49828571,30.2708571 1.71314286,30.0937143 C1.98742857,29.8708571 2.26514286,29.6502857 2.54285714,29.4297143 C3.376,28.8262857 4.22857143,28.2605714 5.11542857,27.736 C5.95885714,27.24 6.79771429,26.7474286 7.59542857,26.1794286 C7.98971429,25.9017143 8.37371429,25.608 8.77485714,25.3405714 C9.15657143,25.0868571 9.54628571,24.8491429 9.93485714,24.6068571 C10.6034286,24.1908571 11.2457143,23.7371429 11.8902857,23.2868571 C11.9097143,23.3017143 11.9302857,23.3177143 11.9497143,23.3325714 C12.7051429,23.9577143 13.4148571,24.6354286 14.1645714,25.2697143 C14.9428571,25.9291429 15.7234286,26.5817143 16.4811429,27.2651429 C17.2217143,27.9314286 17.9348571,28.6217143 18.6434286,29.3211429 C19.3257143,29.9965714 20.0514286,30.6262857 20.6822857,31.3554286 C20.9988571,31.7188571 21.5611429,31.7142857 21.9497143,31.4651429 C22.0902857,31.5371429 22.2411429,31.5874286 22.4011429,31.5874286 C22.6902857,31.5874286 22.8948571,31.4685714 23.112,31.2937143 C23.7154286,30.8068571 24.3257143,30.3268571 24.9177143,29.8274286 C25.4582857,29.3702857 25.9965714,28.9108571 26.5508571,28.4731429 C28.0834286,27.3291429 29.7085714,26.3245714 31.3291429,25.3131429 C31.4674286,25.2274286 31.5691429,25.1085714 31.6514286,24.9782857 C31.792,24.8571429 31.9085714,24.7108571 31.9451429,24.5211429 C32.0377143,24.0468571 31.9862857,23.5554286 31.976,23.0754286 Z M25.84,26.6217143 C25.1222857,27.128 24.4411429,27.68 23.7588571,28.2365714 C23.4731429,28.4685714 23.1817143,28.6948571 22.8925714,28.9245714 C22.8662857,28.3542857 22.8411429,27.784 22.8137143,27.2137143 C22.7862857,26.6422857 22.3565714,26.1622857 21.7645714,26.1622857 C21.2148571,26.1622857 20.6834286,26.6422857 20.7131429,27.2137143 C20.7394286,27.6811429 20.7771429,28.1485714 20.8091429,28.6148571 C20.5565714,28.3817143 20.3028571,28.1497143 20.0514286,27.9142857 C19.6948571,27.576 19.3542857,27.2194286 18.9931429,26.8868571 C18.6011429,26.528 18.208,26.1714286 17.8137143,25.8171429 C17.0582857,25.144 16.2525714,24.5302857 15.4788571,23.8777143 C14.7074286,23.2251429 14.0034286,22.4914286 13.2114286,21.864 C13.056,21.7417143 12.9017143,21.6205714 12.7485714,21.4994286 C12.696,21.416 12.6285714,21.3428571 12.5531429,21.2777143 C12.5714286,21.2045714 12.5988571,21.136 12.6022857,21.0594286 C12.6342857,20.3485714 12.6514286,19.6377143 12.6697143,18.9245714 C12.6811429,18.36 12.1874286,17.8868571 11.6285714,17.8868571 C11.0571429,17.8868571 10.5988571,18.36 10.5897143,18.9245714 C10.5805714,19.6377143 10.5737143,20.3485714 10.5691429,21.0594286 C10.568,21.2525714 10.64,21.4251429 10.7371429,21.5805714 C10.5474286,21.712 10.3577143,21.8411429 10.168,21.9737143 C9.76914286,22.256 9.35657143,22.512 8.94171429,22.7702857 C8.55657143,23.0102857 8.16571429,23.248 7.79542857,23.5108571 C7.40342857,23.7885714 7.024,24.0845714 6.63771429,24.3702857 C5.16457143,25.4525714 3.57142857,26.3497143 2.05714286,27.3657143 C2.10057143,26.7931429 2.14742857,26.2205714 2.15428571,25.6457143 C2.16342857,24.7085714 2.17028571,23.7702857 2.16342857,22.8354286 C2.15657143,21.8491429 2.136,20.864 2.13257143,19.88 C2.128,18.8914286 2.11885714,17.9017143 2.09485714,16.9131429 C2.07428571,16.112 2.03657143,15.3142857 2.02057143,14.5131429 C2.00457143,13.6525714 1.98057143,12.7954286 1.95542857,11.9337143 C1.91085714,10.3977143 1.94285714,8.86171429 1.97714286,7.32571429 C3.392,6.56457143 4.82057143,5.82628571 6.25942857,5.10971429 C7.62857143,4.43085714 8.95657143,3.66285714 10.3577143,3.05371429 C10.6651429,2.92571429 10.9737143,2.8 11.2811429,2.67542857 C11.2754286,3.44342857 11.2708571,4.21142857 11.2457143,4.98057143 C11.2297143,5.50971429 11.7005714,5.952 12.2194286,5.952 C12.7668571,5.952 13.1657143,5.50971429 13.1908571,4.98057143 C13.2205714,4.33485714 13.2342857,3.68914286 13.2525714,3.04342857 C13.5748571,3.34171429 13.8914286,3.64457143 14.2137143,3.94285714 C14.8457143,4.528 15.4377143,5.15428571 16.0777143,5.73257143 C16.6948571,6.29371429 17.3314286,6.83428571 17.9531429,7.38971429 C18.256,7.66057143 18.568,7.92342857 18.8765714,8.18971429 C19.2171429,8.47885714 19.5451429,8.78628571 19.8765714,9.08457143 C20.0365714,9.22742857 20.2308571,9.30285714 20.4297143,9.336 C20.4251429,9.48571429 20.4491429,9.63085714 20.512,9.76685714 C20.5428571,10.5394286 20.5817143,11.3097143 20.6377143,12.0777143 C20.6582857,12.3394286 20.7302857,12.5668571 20.92,12.7565714 C21.0994286,12.936 21.344,13.0365714 21.5977143,13.0365714 C22.0937143,13.0365714 22.5954286,12.5988571 22.5577143,12.0765714 C22.5017143,11.2971429 22.5085714,10.512 22.4902857,9.73028571 C22.6697143,9.58742857 22.8457143,9.44114286 23.024,9.29828571 C23.3405714,9.04114286 23.6605714,8.79085714 23.9817143,8.54171429 C24.7234286,7.97371429 25.4617143,7.40457143 26.1977143,6.83085714 C26.1817143,6.84342857 26.1657143,6.85714286 26.1497143,6.86971429 C27.392,5.912 28.6011429,4.91657143 29.8388571,3.95314286 C29.888,3.91542857 29.9382857,3.87771429 29.9874286,3.84114286 C29.9337143,5.92342857 29.9245714,8.00228571 29.928,10.0845714 C29.9325714,12.0491429 29.9165714,14.0137143 29.9028571,15.9782857 C29.8982857,16.7005714 29.8891429,17.4228571 29.9028571,18.1428571 C29.9188571,18.8697143 29.9428571,19.5942857 29.968,20.3177143 C30.008,21.4788571 30.0342857,22.648 29.9931429,23.8102857 C28.584,24.7131429 27.2057143,25.656 25.84,26.6217143 Z M29.416,1.94171429 C29.3771429,1.97142857 29.3394286,2.00228571 29.3017143,2.03314286 C29.2765714,2.05257143 29.2525714,2.07085714 29.2274286,2.09028571 C29.2902857,2.04114286 29.3531429,1.99085714 29.416,1.94171429 Z M12.7497143,8.40114286 C12.7314286,9.12114286 12.7074286,9.84114286 12.6777143,10.5611429 C12.6548571,11.0925714 12.2491429,11.5371429 11.6994286,11.5371429 C11.1725714,11.5371429 10.72,11.0925714 10.7234286,10.5611429 C10.7302857,9.84114286 10.744,9.12114286 10.7588571,8.40114286 C10.7702857,7.85828571 11.2034286,7.40571429 11.7542857,7.40571429 C12.2857143,7.40571429 12.7657143,7.85828571 12.7497143,8.40114286 Z M12.512,14.1988571 C12.5234286,14.4365714 12.5302857,14.672 12.5394286,14.9097143 C12.56,15.4731429 12.0548571,15.944 11.5051429,15.944 C10.9154286,15.944 10.5097143,15.4731429 10.4731429,14.9097143 C10.4571429,14.672 10.4434286,14.4365714 10.4331429,14.1988571 C10.4068571,13.632 10.9268571,13.1588571 11.4742857,13.1588571 C12.0571429,13.1588571 12.4891429,13.632 12.512,14.1988571 Z M20.5531429,17.8548571 C20.5257143,17.1417143 20.5234286,16.4262857 20.52,15.7108571 C20.5177143,15.1611429 20.9817143,14.7017143 21.5291429,14.7017143 C22.0834286,14.7017143 22.5382857,15.1611429 22.5405714,15.7108571 C22.5428571,16.4262857 22.5405714,17.1394286 22.5542857,17.8548571 C22.5634286,18.4 22.0925714,18.8548571 21.5542857,18.8548571 C20.9931429,18.8548571 20.5737143,18.4 20.5531429,17.8548571 Z M22.56,21.3497143 C22.5897143,21.8902857 22.616,22.4308571 22.6514286,22.9714286 C22.6868571,23.5257143 22.16,23.9874286 21.6331429,23.9874286 C21.3645714,23.9874286 21.1017143,23.88 20.9131429,23.6891429 C20.7085714,23.4845714 20.6422857,23.2491429 20.6148571,22.9714286 C20.5634286,22.4308571 20.5314286,21.8902857 20.5005714,21.3497143 C20.4674286,20.7908571 20.9942857,20.3222857 21.5302857,20.3222857 C22.1154286,20.3222857 22.528,20.7908571 22.56,21.3497143 Z" id="Shape"></path>
                        </g>
                    </g>
                </g>
            </g>
        </g>
    </g>
</svg>