<?xml version="1.0" encoding="UTF-8"?>
<svg width="31px" height="31px" viewBox="0 0 31 31" version="1.1" xmlns="http://www.w3.org/2000/svg" xmlns:xlink="http://www.w3.org/1999/xlink">
    <!-- Generator: Sketch 48.1 (47250) - http://www.bohemiancoding.com/sketch -->
    <title>sketchy-like</title>
    <desc>Created with Sketch.</desc>
    <defs></defs>
    <g id="Launch-Page" stroke="none" stroke-width="1" fill="none" fill-rule="evenodd" transform="translate(-135.000000, -1899.000000)">
        <g id="Discover-and-Track-your-activities" transform="translate(-316.000000, 1050.000000)" fill="#FBC02D" fill-rule="nonzero">
            <g id="Group-10" transform="translate(451.000000, 449.000000)">
                <g id="Feature-list" transform="translate(0.000000, 276.000000)">
                    <g id="Group-7" transform="translate(0.000000, 124.000000)">
                        <g id="sketchy-like">
                            <path d="M29.6485517,20.4689655 C29.5271724,20.3166897 29.3936552,20.169931 29.2513103,20.0331034 C29.44,19.8642759 29.577931,19.6336552 29.7158621,19.4251034 C29.9155862,19.1194483 30.0844138,18.816 30.2068966,18.4684138 C30.4805517,17.6893793 30.0766897,16.8562759 29.5702069,16.2747586 C29.4962759,16.1897931 29.4135172,16.1103448 29.3274483,16.0364138 C29.417931,15.9271724 29.5051034,15.8124138 29.5911724,15.702069 C29.8162759,15.4129655 30.0634483,15.1117241 30.1285517,14.7387586 C30.1958621,14.3591724 30.1517241,13.9950345 30.0546207,13.6242759 C29.8604138,12.8827586 29.216,12.3089655 28.5881379,11.9238621 C28.3817931,11.7969655 28.1644138,11.7031724 27.9393103,11.616 C27.7495172,11.5442759 27.5266207,11.5277241 27.328,11.5023448 C26.9848276,11.4604138 26.6350345,11.4670345 26.2896552,11.4604138 C26.2002759,11.4593103 26.1108966,11.4582069 26.0215172,11.4582069 C25.0835862,11.4582069 24.150069,11.5332414 23.2132414,11.574069 C22.2951724,11.6115862 21.3737931,11.6182069 20.4546207,11.6182069 C20.4524138,11.1878621 20.4535172,10.7575172 20.4369655,10.3271724 C20.4171034,9.78427586 20.4049655,9.24468966 20.457931,8.7017931 C20.4943448,8.49103448 20.5417931,8.28248276 20.5782069,8.07282759 C20.6411034,7.70206897 20.7128276,7.33572414 20.7613793,6.96055172 C20.8518621,6.28193103 20.9302069,5.58896552 20.8430345,4.90593103 C20.7922759,4.49544828 20.7271724,4.08827586 20.6366897,3.68662069 C20.5462069,3.29268966 20.4303448,2.8777931 20.2129655,2.53351724 C20.0882759,2.33489655 19.9326897,2.15613793 19.7892414,1.97296552 C19.6689655,1.8217931 19.5431724,1.67172414 19.4041379,1.53710345 C19.1746207,1.3097931 18.9064828,1.11558621 18.6515862,0.915862069 C18.422069,0.737103448 18.1925517,0.555034483 17.9453793,0.399448276 C17.6783448,0.23062069 17.3892414,0.112551724 17.0835862,0.0286896552 C17.0096552,0.00993103448 16.9335172,0 16.8584828,0 C16.4744828,0 16.1136552,0.257103448 16.0077241,0.641103448 C15.9856552,0.722758621 15.990069,0.805517241 15.9911724,0.887172414 C15.977931,0.907034483 15.9547586,0.915862069 15.9415172,0.936827586 C15.8675862,1.06482759 15.830069,1.20386207 15.830069,1.35172414 C15.785931,1.67282759 15.7550345,1.99393103 15.7164138,2.31393103 C15.584,3.26731034 15.3864828,4.21406897 15.2044138,5.16082759 C15.0576552,5.93434483 14.9473103,6.71668966 14.665931,7.45268966 C14.5103448,7.80137931 14.336,8.14344828 14.1671724,8.48551724 C13.9497931,8.92137931 13.6871724,9.33627586 13.4444138,9.7577931 C12.969931,10.582069 12.4833103,11.3986207 11.9161379,12.1611034 C11.7009655,12.4292414 11.478069,12.6885517 11.2408276,12.9401379 C11.0168276,13.1795862 10.7762759,13.3914483 10.5224828,13.5955862 C10.3856552,13.6993103 10.2477241,13.7997241 10.0987586,13.8857931 C9.99613793,13.9442759 9.8902069,13.9928276 9.78537931,14.0435862 C9.78537931,13.9895172 9.78868966,13.9365517 9.78868966,13.8835862 C9.78427586,13.417931 9.40358621,13.0306207 8.93351724,13.0306207 C8.86841379,13.0306207 8.80772414,13.0548966 8.74593103,13.0692414 C8.70289655,13.0593103 8.66206897,13.0372414 8.62013793,13.0372414 C8.60468966,13.0372414 8.58813793,13.0383448 8.57268966,13.0394483 C7.47475862,13.1486897 6.36468966,13.1663448 5.26013793,13.1917241 C4.7017931,13.2038621 4.14344828,13.2193103 3.58289655,13.2126897 C3.01572414,13.2082759 2.44303448,13.1409655 1.87806897,13.1961379 C1.8262069,13.2016552 1.78317241,13.2171034 1.73462069,13.2270345 C1.64965517,13.1983448 1.56248276,13.1718621 1.46537931,13.1718621 C1.01627586,13.1718621 0.571586207,13.5657931 0.60137931,14.0358621 C0.626758621,14.432 0.656551724,14.8215172 0.659862069,15.2176552 C0.664275862,15.6303448 0.664275862,16.0441379 0.666482759,16.4546207 C0.668689655,17.270069 0.647724138,18.0855172 0.657655172,18.9009655 C0.680827586,20.5108966 0.691862069,22.1186207 0.691862069,23.7263448 C0.691862069,24.512 0.670896552,25.2943448 0.656551724,26.0777931 C0.644413793,26.7663448 0.652137931,27.4537931 0.637793103,28.1401379 C0.63337931,28.3608276 0.730482759,28.5594483 0.881655172,28.704 C1.03393103,28.8948966 1.25351724,29.0284138 1.5062069,29.0096552 C2.70344828,28.9213793 3.904,28.8375172 5.10455172,28.8474483 C5.44993103,28.8518621 5.79751724,28.8496552 6.14510345,28.8496552 C6.39117241,28.8474483 6.64055172,28.8474483 6.88882759,28.8474483 C7.45158621,28.8474483 8.02648276,28.8308966 8.58482759,28.8937931 C8.78896552,28.9169655 9.02510345,28.7922759 9.16413793,28.6532414 C9.24027586,28.5771034 9.29986207,28.4844138 9.34068966,28.3851034 C9.71475862,28.3111724 10.0281379,27.9878621 10.016,27.5917241 C10.0137931,27.5255172 10.006069,27.4593103 10.0016552,27.3942069 C10.0292414,27.414069 10.057931,27.4328276 10.0844138,27.4526897 C10.7630345,28.0033103 11.414069,28.5936552 12.1423448,29.0791724 C12.489931,29.3108966 12.8353103,29.5569655 13.206069,29.7511724 C13.6275862,29.9718621 14.070069,30.1594483 14.5224828,30.3051034 C15.3489655,30.5743448 16.214069,30.6626207 17.078069,30.7288276 C17.4929655,30.7608276 17.910069,30.7873103 18.3249655,30.8303448 C18.7233103,30.8678621 19.1194483,30.8954483 19.52,30.8976552 C21.2226207,30.902069 22.9208276,30.7961379 24.6212414,30.7564138 C25.1288276,30.7442759 25.6342069,30.7188966 26.1362759,30.6427586 C26.5257931,30.5842759 26.9241379,30.5224828 27.3037241,30.4198621 C27.4637241,30.3757241 27.625931,30.3227586 27.7804138,30.2598621 C27.9128276,30.2046897 28.0518621,30.1561379 28.1765517,30.0811034 C28.2968276,30.0093793 28.406069,29.9188966 28.5175172,29.8306207 C28.7657931,29.6364138 29.0085517,29.4411034 29.2148966,29.1983448 C29.4256552,28.950069 29.5503448,28.6631724 29.7015172,28.3784828 C29.8085517,28.1743448 29.9078621,27.9591724 29.9564138,27.734069 C30.0678621,27.2198621 30.0402759,26.697931 29.8957241,26.1936552 C29.814069,25.9177931 29.7147586,25.6474483 29.5944828,25.3870345 C29.5017931,25.1851034 29.3373793,25.014069 29.1873103,24.8518621 C29.1122759,24.7713103 29.0361379,24.6918621 28.96,24.6113103 C28.9931034,24.5848276 29.0262069,24.5583448 29.0593103,24.5318621 C29.2766897,24.3597241 29.4344828,24.1633103 29.6011034,23.9393103 C29.7798621,23.6987586 29.9233103,23.4405517 30.0226207,23.1558621 C30.1053793,22.9197241 30.1384828,22.6626207 30.1848276,22.4187586 C30.2455172,22.0811034 30.2455172,21.8184828 30.1826207,21.4808276 C30.1108966,21.0924138 29.8891034,20.7657931 29.6485517,20.4689655 Z M7.42951724,27.2761379 C7.24855172,27.2761379 7.06868966,27.273931 6.88993103,27.273931 C6.29627586,27.2783448 5.69931034,27.2761379 5.10565517,27.2882759 C4.50537931,27.3026207 3.90289655,27.3346207 3.30151724,27.3489655 C3.03227586,27.3577931 2.76193103,27.3533793 2.49268966,27.3489655 C2.3977931,27.3489655 2.30289655,27.3533793 2.20689655,27.3522759 C2.19917241,26.144 2.21462069,24.9346207 2.21462069,23.7252414 C2.21682759,22.1175172 2.2422069,20.5075862 2.27310345,18.8998621 C2.28965517,18.0844138 2.31282759,17.2689655 2.32165517,16.4535172 C2.32606897,16.0430345 2.32386207,15.6292414 2.32386207,15.2165517 C2.32496552,15.0786207 2.32275862,14.9417931 2.32606897,14.8038621 C2.73875862,14.774069 3.15144828,14.7575172 3.56634483,14.7453793 C4.12468966,14.7288276 4.68303448,14.710069 5.24358621,14.6924138 C5.79089655,14.678069 6.34151724,14.6802759 6.88882759,14.678069 C7.296,14.678069 7.70317241,14.6714483 8.11144828,14.665931 C8.13572414,15.2353103 8.16331034,15.8046897 8.17324138,16.3751724 C8.18758621,17.1718621 8.20524138,17.9696552 8.21737931,18.7663448 C8.22841379,19.5906207 8.25268966,20.4115862 8.27806897,21.2336552 C8.30124138,22.0468966 8.31337931,22.857931 8.3222069,23.6711724 C8.33103448,24.3641379 8.30786207,25.0571034 8.33324138,25.7511724 C8.34758621,26.0866207 8.36744828,26.4209655 8.37296552,26.7542069 C8.37517241,26.9241379 8.37296552,27.0918621 8.37075862,27.2606897 C8.05848276,27.2750345 7.744,27.2805517 7.42951724,27.2761379 Z M28.5208276,24.9577931 C28.5241379,24.9555862 28.5263448,24.9533793 28.5296552,24.9511724 C28.5351724,24.9467586 28.5406897,24.9423448 28.5473103,24.937931 C28.5384828,24.9445517 28.5296552,24.9511724 28.5208276,24.9577931 Z M28.5991724,17.9553103 C28.5881379,17.9994483 28.576,18.0424828 28.5605517,18.0855172 C28.448,18.3194483 28.310069,18.5489655 28.1611034,18.7608276 C28.1302069,18.7961379 28.0993103,18.8303448 28.0662069,18.8623448 C27.8775172,18.9804138 27.670069,19.0686897 27.478069,19.1823448 C27.1933793,19.3533793 26.9936552,19.6336552 26.9936552,19.9746207 C26.9936552,20.3453793 27.2342069,20.6146207 27.5398621,20.7922759 C27.6755862,20.8706207 27.8157241,20.9434483 27.9492414,21.0295172 C28.0993103,21.1608276 28.2372414,21.3053793 28.3652414,21.4587586 C28.4204138,21.5404138 28.4689655,21.6242759 28.5131034,21.7125517 C28.5285517,21.7622069 28.5417931,21.8118621 28.5528276,21.8626207 C28.553931,21.910069 28.5528276,21.9564138 28.5506207,22.0049655 C28.5164138,22.2289655 28.4777931,22.4573793 28.4071724,22.6703448 C28.3442759,22.7895172 28.2736552,22.9031724 28.1964138,23.0124138 C28.0904828,23.1393103 27.9713103,23.2518621 27.8433103,23.3566897 C27.7097931,23.4548966 27.5718621,23.5464828 27.4350345,23.6369655 C27.1944828,23.7969655 27.017931,23.9702069 26.9252414,24.2504828 C26.8071724,24.6002759 26.9627586,24.9412414 27.1944828,25.1961379 C27.4504828,25.4786207 27.7164138,25.7522759 27.9558621,26.048 C28.0033103,26.1142069 28.0452414,26.1826207 28.0838621,26.2543448 C28.1577931,26.4562759 28.2217931,26.6593103 28.2615172,26.870069 C28.2714483,26.985931 28.2725517,27.1028966 28.265931,27.2187586 C28.2526897,27.2871724 28.2361379,27.3555862 28.2151724,27.4217931 C28.1743448,27.5034483 28.1313103,27.5851034 28.0915862,27.6678621 C28.0331034,27.7881379 27.977931,27.9084138 27.9084138,28.0209655 C27.7649655,28.1765517 27.6115862,28.3166897 27.4482759,28.4502069 C27.3588966,28.5142069 27.2662069,28.5726897 27.1668966,28.6223448 C26.7354483,28.7790345 26.2852414,28.873931 25.8306207,28.9445517 C24.9975172,29.0306207 24.1544828,29.001931 23.3191724,29.0328276 C22.5015172,29.0604138 21.6838621,29.0670345 20.8662069,29.0813793 C20.0187586,29.0957241 19.1768276,29.1343448 18.3293793,29.0857931 C17.5635862,29.0416552 16.7944828,29.0251034 16.0297931,28.9335172 C15.4571034,28.8375172 14.9075862,28.681931 14.3691034,28.4689655 C13.8648276,28.2284138 13.3969655,27.9293793 12.9346207,27.6171034 C12.4744828,27.3070345 12.0264828,26.9793103 11.5828966,26.6449655 C11.337931,26.454069 11.0951724,26.2631724 10.8446897,26.0833103 C10.6405517,25.9387586 10.4231724,25.8162759 10.217931,25.673931 C10.2102069,25.6673103 10.2035862,25.6606897 10.1958621,25.6529655 C10.1053793,25.5724138 10.0016552,25.5183448 9.89351724,25.4808276 C9.89351724,25.4675862 9.89241379,25.4543448 9.89131034,25.4411034 C9.86813793,24.6377931 9.856,23.8333793 9.84055172,23.0289655 C9.824,22.2135172 9.79641379,21.398069 9.78317241,20.5826207 C9.76882759,19.7506207 9.76662069,18.9208276 9.76662069,18.0877241 C9.76882759,17.4135172 9.76441379,16.7393103 9.7622069,16.0651034 C9.7622069,15.9657931 9.76331034,15.8664828 9.76331034,15.7671724 C9.76662069,15.7649655 9.76882759,15.7627586 9.77213793,15.7616552 C10.0601379,15.5630345 10.4055172,15.4372414 10.72,15.2871724 C11.1371034,15.0852414 11.5233103,14.784 11.872,14.486069 C12.1754483,14.2289655 12.4446897,13.9376552 12.7106207,13.6452414 C13.0052414,13.3230345 13.28,12.9798621 13.5348966,12.6256552 C14.0071724,11.9657931 14.3966897,11.254069 14.8115862,10.5611034 C15.0135172,10.2256552 15.2242759,9.89682759 15.4184828,9.55806897 C15.6126897,9.22482759 15.7848276,8.87944828 15.9536552,8.53186207 C16.1478621,8.14013793 16.3078621,7.73075862 16.4314483,7.31255172 C16.4888276,7.12055172 16.5451034,6.92744828 16.5726897,6.72662069 C16.598069,6.53903448 16.6212414,6.35034483 16.6444138,6.16165517 C16.8375172,4.78675862 17.1332414,3.42841379 17.3627586,2.05793103 C17.5315862,2.1737931 17.6971034,2.29737931 17.8604138,2.42427586 C17.9828966,2.52137931 18.1042759,2.62068966 18.2146207,2.73103448 C18.377931,2.89213793 18.5291034,3.06648276 18.6736552,3.24634483 C18.7343448,3.33131034 18.7895172,3.41737931 18.8391724,3.50786207 C19.0223448,4.01324138 19.126069,4.53958621 19.2055172,5.07034483 C19.2750345,5.71586207 19.2132414,6.3702069 19.1326897,7.01351724 C19.0742069,7.4217931 19.0102069,7.83337931 18.9285517,8.23834483 C18.838069,8.67641379 18.8292414,9.12331034 18.8126897,9.568 C18.7806897,10.4849655 18.8910345,11.3986207 18.838069,12.3155862 C18.8204138,12.598069 18.9925517,12.8397241 19.2231724,12.9853793 C19.3743448,13.1553103 19.5873103,13.2689655 19.8278621,13.2678621 C20.4998621,13.2634483 21.1696552,13.2104828 21.8416552,13.1795862 C22.4628966,13.1475862 23.0852414,13.1398621 23.7064828,13.1188966 C24.3111724,13.097931 24.9136552,13.0891034 25.5183448,13.0846897 C26.0413793,13.0824828 26.56,13.0935172 27.0775172,13.1553103 C27.2342069,13.1828966 27.382069,13.2226207 27.5310345,13.2755862 C27.6844138,13.3550345 27.8322759,13.4444138 27.9735172,13.545931 C28.0761379,13.6331034 28.1743448,13.7268966 28.2648276,13.8273103 C28.3089655,13.8957241 28.3497931,13.9663448 28.3884138,14.0391724 C28.4093793,14.1053793 28.425931,14.1726897 28.4402759,14.2411034 C28.4424828,14.2753103 28.4446897,14.3084138 28.4446897,14.3426207 C28.3784828,14.4595862 28.3001379,14.5688276 28.2184828,14.6758621 C28.1169655,14.806069 28.0110345,14.9307586 27.8896552,15.0411034 C27.7748966,15.1172414 27.6524138,15.1790345 27.5266207,15.241931 C27.1514483,15.4251034 26.9097931,15.8995862 27.0466207,16.3056552 C27.1282759,16.5484138 27.2827586,16.7569655 27.5188966,16.864 C27.5817931,16.8915862 27.6446897,16.918069 27.7086897,16.9434483 C27.8234483,16.9986207 27.9304828,17.0648276 28.0342069,17.1365517 C28.1710345,17.2535172 28.2968276,17.3815172 28.4137931,17.5172414 C28.4678621,17.5988966 28.5175172,17.6816552 28.5605517,17.7688276 C28.5748966,17.8118621 28.5881379,17.8537931 28.5991724,17.897931 C28.6002759,17.9155862 28.5991724,17.9354483 28.5991724,17.9553103 Z M28.1633103,23.0532414 C28.1588966,23.0587586 28.1555862,23.0642759 28.1511724,23.0697931 C28.1390345,23.0863448 28.1257931,23.1028966 28.1136552,23.1194483 C28.1291034,23.0973793 28.1456552,23.0753103 28.1633103,23.0532414 Z" id="Shape"></path>
                        </g>
                    </g>
                </g>
            </g>
        </g>
    </g>
</svg>