<?xml version="1.0" encoding="UTF-8"?>
<svg width="28px" height="28px" viewBox="0 0 28 28" version="1.1" xmlns="http://www.w3.org/2000/svg" xmlns:xlink="http://www.w3.org/1999/xlink">
    <!-- Generator: Sketch 48.1 (47250) - http://www.bohemiancoding.com/sketch -->
    <title>sketchy-browse</title>
    <desc>Created with Sketch.</desc>
    <defs></defs>
    <g id="Launch-Page" stroke="none" stroke-width="1" fill="none" fill-rule="evenodd" transform="translate(-136.000000, -2023.000000)">
        <g id="Discover-and-Track-your-activities" transform="translate(-316.000000, 1050.000000)" fill="#4DD0E1" fill-rule="nonzero">
            <g id="Group-10" transform="translate(451.000000, 449.000000)">
                <g id="Feature-list" transform="translate(0.000000, 276.000000)">
                    <g id="Group-7-Copy" transform="translate(1.000000, 248.000000)">
                        <g id="sketchy-browse">
                            <path d="M27.416,26.746 C27.473,26.629 27.504,26.509 27.506,26.388 C27.508,26.297 27.491,26.205 27.465,26.059 C27.422,25.698 27.393,25.335 27.364,24.973 C27.344,24.72 27.323,24.467 27.299,24.215 C27.223,23.465 27.154,22.714 27.082,21.936 L27.025,21.31 C26.901,19.966 26.774,18.577 26.549,17.223 C26.288,15.645 25.98,14.092 25.631,12.606 C25.453,11.84 25.265,11.075 25.058,10.315 L25.009,10.131 C24.92,9.803 24.832,9.476 24.749,9.148 L24.702,8.958 C24.63,8.666 24.559,8.375 24.459,8.092 C24.321,7.693 24.164,7.312 23.993,6.96 L23.914,6.797 C23.802,6.567 23.691,6.339 23.588,6.107 C23.514,5.923 23.448,5.735 23.383,5.468 C23.45,5.226 23.403,4.971 23.255,4.768 C23.099,4.556 22.848,4.424 22.556,4.415 C22.293,4.406 22.026,4.438 21.762,4.438 L21.683,4.483 C21.665,4.294 21.652,4.104 21.64,3.915 L21.618,3.592 C21.59,3.207 21.567,2.823 21.548,2.437 L21.534,2.094 C21.527,1.89 21.52,1.683 21.497,1.48 C21.46,1.152 21.403,0.811 21.156,0.566 C20.943,0.351 20.689,0.306 20.448,0.278 L20.442,0.328 L20.303,0.266 C20.111,0.234 19.918,0.202 19.713,0.201 C19.49,0.201 19.275,0.248 19.067,0.292 L18.824,0.343 C18.565,0.368 18.301,0.376 18.043,0.377 C17.704,0.38 17.367,0.395 17.029,0.409 L16.679,0.424 C16.254,0.441 15.772,0.459 15.54,0.898 C15.405,1.155 15.409,1.393 15.432,1.613 C15.443,1.702 15.444,1.79 15.446,1.88 C15.448,1.952 15.449,2.024 15.455,2.095 C15.467,2.276 15.494,2.455 15.53,2.686 C15.611,3.319 15.607,3.956 15.568,4.507 C15.305,4.525 15.118,4.603 14.964,4.759 C14.835,4.887 14.753,5.065 14.739,5.246 C14.604,5.413 14.536,5.593 14.537,5.781 C14.539,6.243 14.543,6.707 14.567,7.171 C14.567,7.171 14.625,8.122 14.635,8.333 C14.658,8.803 14.664,9.274 14.669,9.746 C14.672,10.057 14.676,10.37 14.685,10.681 L14.725,11.897 L14.692,12.308 L14.584,12.311 L13.759,12.285 C13.344,12.271 12.929,12.264 12.564,12.224 C12.564,11.821 12.566,11.422 12.574,11.02 L12.585,10.577 C12.592,10.344 12.599,10.111 12.598,9.879 L12.59,9.169 C12.582,8.657 12.575,8.146 12.592,7.568 C12.613,6.888 12.634,6.21 12.64,5.529 C12.642,5.247 12.581,4.988 12.388,4.773 C12.349,4.73 11.732,4.325 11.733,4.344 C11.708,3.982 11.694,3.617 11.679,3.253 L11.654,2.662 C11.636,2.298 11.608,1.934 11.577,1.539 C11.556,1.279 11.534,1.01 11.466,0.755 C11.409,0.536 11.265,0.345 11.025,0.172 C10.865,0.055 10.694,0.034 10.497,0.009 C10.454,0.002 10.41,0 10.367,0 C10.249,0 10.13,0.018 10.012,0.035 L9.864,0.055 C9.626,0.083 9.387,0.099 9.147,0.115 L8.934,0.13 C8.311,0.176 7.674,0.247 6.916,0.353 C6.804,0.361 6.695,0.369 6.579,0.383 C6.463,0.399 6.348,0.445 6.238,0.528 C6.119,0.615 6.048,0.667 5.966,0.811 C5.879,0.958 5.866,1.066 5.844,1.254 C5.838,1.309 5.841,1.367 5.846,1.508 L5.85,2.684 C5.852,3.227 5.854,3.769 5.911,4.261 L5.656,4.266 C5.372,4.272 5.088,4.277 4.804,4.288 C4.342,4.31 3.985,4.649 3.961,5.072 C3.915,5.144 3.874,5.221 3.839,5.307 C3.53,6.085 3.287,6.869 3.036,7.699 C2.809,8.446 2.575,9.218 2.396,9.997 C2.049,11.515 1.688,13.147 1.406,14.789 C1.232,15.81 1.116,16.597 1.03,17.341 L0.963,17.904 C0.89,18.516 0.817,19.128 0.77,19.742 C0.708,20.546 0.656,21.352 0.607,22.157 L0.59,22.422 C0.571,22.727 0.551,23.031 0.545,23.337 L0.489,25.526 C0.485,25.641 0.486,25.757 0.488,25.871 L0.488,26.168 C0.485,26.394 0.482,26.627 0.616,26.805 C0.574,26.918 0.555,27.014 0.555,27.107 C0.555,27.591 0.959,27.999 1.445,27.999 C1.887,27.994 2.328,27.981 2.769,27.97 C3.177,27.958 3.585,27.947 3.993,27.941 C4.785,27.929 5.577,27.925 6.37,27.925 L6.902,27.926 C7.519,27.926 8.136,27.921 8.751,27.892 C9.269,27.871 9.783,27.859 10.298,27.859 C10.512,27.859 11.143,27.868 11.143,27.868 C11.313,27.87 11.485,27.872 11.688,27.896 C11.766,27.923 11.848,27.937 11.931,27.937 C12.311,27.937 12.69,27.645 12.771,27.271 C13.067,27.116 13.246,26.829 13.239,26.522 C13.235,26.398 13.217,26.275 13.198,26.154 C13.178,25.938 13.169,25.72 13.16,25.502 L13.143,25.15 L13.053,23.76 C13.008,23.039 12.963,22.317 12.91,21.597 C12.884,21.235 12.852,20.873 12.82,20.511 C12.784,20.105 12.748,19.7 12.721,19.295 C12.703,19.024 12.691,18.754 12.679,18.484 L12.61,18.116 C13.001,18.112 13.391,18.107 13.781,18.097 L14.446,18.08 C14.626,18.078 14.803,18.077 14.922,17.995 L14.926,18.368 C14.933,18.936 14.939,19.506 14.957,20.073 C14.973,20.654 14.999,21.233 15.023,21.812 C15.062,22.704 15.101,23.595 15.108,24.486 L15.114,24.991 C15.123,25.483 15.131,25.992 15.093,26.485 C15.082,26.603 15.106,26.72 15.148,26.853 C15.133,26.905 15.118,26.957 15.118,27.017 C15.118,27.488 15.507,27.885 15.987,27.885 C16.425,27.876 16.862,27.854 17.299,27.831 C17.683,27.812 18.067,27.791 18.45,27.78 C18.689,27.774 18.928,27.771 19.166,27.771 C19.731,27.771 20.296,27.788 20.862,27.82 C21.881,27.878 22.918,27.879 23.92,27.88 C24.48,27.88 25.04,27.881 25.6,27.891 C25.835,27.895 26.073,27.901 26.309,27.915 L26.412,27.924 C26.485,27.931 26.559,27.937 26.655,27.937 C27.129,27.935 27.514,27.55 27.514,27.078 C27.513,26.954 27.48,26.827 27.416,26.746 Z M7.476,1.823 C7.621,1.793 7.766,1.764 7.908,1.74 C8.336,1.696 8.77,1.674 9.199,1.662 L9.669,1.669 L9.93,1.617 L9.974,1.891 C10.004,2.079 10.03,2.266 10.055,2.452 C10.111,2.892 10.153,3.336 10.189,3.778 L10.27,4.191 L9.76,4.191 C9.381,4.191 9.002,4.193 8.622,4.203 C8.35,4.212 8.077,4.216 7.805,4.221 L7.548,4.274 C7.529,3.829 7.457,2.455 7.457,2.455 C7.447,2.231 7.442,2.009 7.476,1.823 Z M3.294,13.111 C3.365,12.75 3.436,12.389 3.516,12.029 L3.635,11.493 C3.768,10.884 3.902,10.274 4.074,9.672 C4.294,8.901 4.549,8.118 4.831,7.343 C4.995,6.89 5.182,6.444 5.345,5.981 L6.781,5.88 C7.335,5.837 7.89,5.818 8.512,5.795 C8.751,5.788 8.989,5.784 9.228,5.784 C9.555,5.784 9.883,5.791 10.211,5.803 C10.303,5.807 10.395,5.815 10.486,5.822 C10.589,5.831 10.693,5.84 10.795,5.842 L10.907,5.86 L10.922,6.475 C10.935,6.967 10.948,7.46 10.942,7.952 C10.938,8.347 10.942,8.742 10.947,9.137 C10.951,9.509 10.956,9.88 10.953,10.252 C10.946,11.145 10.946,12.038 10.947,12.93 L10.996,13.305 L9.64,13.323 C8.952,13.335 8.263,13.346 7.573,13.346 C7.194,13.346 5.678,13.332 5.299,13.332 C4.445,13.332 3.789,13.35 3.225,13.45 L3.294,13.111 Z M2.641,16.922 L2.671,16.661 C2.737,16.194 2.816,15.727 2.896,15.262 L2.924,15.098 C2.963,15.11 3.005,15.12 3.067,15.12 C3.069,15.12 3.309,15.099 3.309,15.099 C4.026,15.034 4.741,14.969 5.461,14.934 C5.989,14.91 6.518,14.909 7.047,14.908 C7.047,14.908 8.933,14.9 9.61,14.9 C9.958,14.902 10.844,14.906 10.946,14.904 C10.953,15.863 10.988,16.824 11.086,17.731 C10.872,17.732 10.659,17.739 10.445,17.746 C10.242,17.752 10.038,17.759 9.834,17.761 C9.418,17.765 9.002,17.784 8.586,17.804 C8.297,17.818 8.008,17.831 7.719,17.84 C7.424,17.849 7.129,17.852 6.834,17.852 L5.427,17.842 C4.676,17.836 3.929,17.812 3.179,17.774 L2.855,17.76 L2.558,17.8 L2.641,16.922 Z M2.251,23.399 C2.251,22.849 2.252,22.3 2.281,21.753 L2.318,20.988 C2.342,20.463 2.367,19.938 2.406,19.413 L2.552,19.414 C2.99,19.414 3.428,19.397 3.867,19.38 C4.146,19.368 4.424,19.358 4.703,19.351 C5.134,19.342 5.565,19.34 5.996,19.34 L9.13,19.329 C9.675,19.329 10.22,19.336 10.765,19.359 L10.967,19.363 L11.132,19.364 L11.152,19.701 L11.232,20.65 C11.269,21.081 11.307,21.512 11.338,21.944 C11.385,22.6 11.426,23.256 11.516,23.859 L11.192,23.85 C10.94,23.842 10.691,23.84 10.439,23.84 C10.439,23.84 8.717,23.841 8.142,23.846 C7.183,23.854 6.227,23.885 5.27,23.915 C4.689,23.934 4.108,23.953 3.526,23.967 L2.862,23.978 L2.247,24.026 L2.251,23.399 Z M10.86,26.143 C10.365,26.143 9.871,26.168 9.376,26.193 L8.635,26.228 C8.176,26.247 7.717,26.251 7.258,26.251 L6.172,26.25 C5.793,26.25 5.414,26.255 5.035,26.26 C4.661,26.266 4.287,26.271 3.818,26.271 C3.813,26.271 3.807,26.271 3.801,26.271 C3.349,26.269 2.896,26.256 2.444,26.243 L2.311,26.283 C2.3,26.167 2.277,26.075 2.243,26.011 C2.237,25.905 2.238,25.798 2.194,25.646 C3.578,25.534 4.826,25.439 6.091,25.413 C6.801,25.398 7.512,25.391 8.222,25.391 L8.46,25.391 C9.207,25.391 9.979,25.391 10.738,25.444 C11.024,25.464 11.31,25.49 11.552,25.499 C11.562,25.724 11.572,25.951 11.596,26.129 C11.473,26.128 10.98,26.143 10.86,26.143 Z M14.767,16.418 C14.7,16.418 14.636,16.427 14.588,16.443 L14.405,16.447 C14.259,16.447 14.111,16.44 13.965,16.433 L13.711,16.423 C13.565,16.418 13.418,16.415 13.274,16.415 C13.036,16.415 12.805,16.424 12.593,16.452 C12.574,15.611 12.566,14.771 12.516,13.98 C12.914,13.976 13.311,13.971 13.707,13.961 L14.014,13.947 C14.168,13.938 14.323,13.929 14.477,13.929 C14.491,13.929 14.505,13.93 14.519,13.93 C14.608,13.93 14.698,13.927 14.792,13.885 L14.838,15.267 L14.867,15.969 L14.95,16.437 C14.886,16.425 14.825,16.418 14.767,16.418 Z M17.42,1.973 L17.591,1.97 C17.72,1.97 17.85,1.975 17.978,1.98 L18.311,1.99 L18.772,1.981 C18.987,1.976 19.199,1.95 19.407,1.919 C19.457,1.915 19.506,1.913 19.555,1.913 C19.597,1.913 19.75,1.913 19.781,1.909 L19.78,1.92 L19.79,1.907 C19.808,1.904 19.826,1.9 19.841,1.894 L19.85,1.901 L19.874,2.179 C19.942,2.955 20.01,3.731 20.085,4.457 L19.262,4.473 L18.58,4.477 L17.296,4.473 L17.24,4.474 C17.228,3.89 17.187,3.316 17.114,2.672 C17.088,2.432 17.072,2.189 17.018,1.999 C17.153,1.988 17.287,1.979 17.42,1.973 Z M16.368,13.25 L16.362,13.086 C16.316,11.667 16.294,10.249 16.271,8.831 L16.264,8.39 C16.253,7.76 16.263,7.131 16.273,6.5 L16.234,6.17 L16.383,6.155 C16.706,6.123 17.028,6.091 17.353,6.068 C17.677,6.048 18.005,6.043 18.333,6.043 L19.853,6.046 L21.282,6.04 L21.764,6.004 L21.827,6.162 C21.942,6.444 22.057,6.726 22.194,6.999 L22.347,7.298 C22.483,7.564 22.62,7.83 22.736,8.103 C22.955,8.652 23.12,9.228 23.28,9.785 L23.373,10.108 C23.596,10.879 23.813,11.646 24.009,12.422 C24.055,12.601 24.095,12.781 24.135,12.961 L24.259,13.234 L23.665,13.245 L23.26,13.245 C22.566,13.25 21.874,13.262 21.181,13.281 C20.618,13.299 20.055,13.308 19.494,13.308 C18.385,13.308 17.385,13.268 16.437,13.184 L16.394,13.183 L16.368,13.25 Z M16.43,14.89 C16.802,14.917 17.172,14.928 17.544,14.928 C18.265,14.928 18.987,14.887 19.707,14.846 C20.179,14.819 20.65,14.792 21.121,14.777 C21.39,14.769 21.659,14.766 21.928,14.766 C22.326,14.766 22.723,14.772 23.121,14.779 L23.769,14.783 C23.972,14.783 24.175,14.791 24.378,14.798 L24.549,14.766 C24.708,15.524 24.853,16.284 24.987,17.046 C25.025,17.268 25.058,17.491 25.152,17.752 L24.65,17.766 C24.351,17.773 24.053,17.781 23.751,17.794 C23.043,17.825 22.335,17.856 21.628,17.868 C21.261,17.874 19.749,17.913 19.359,17.919 L18.876,17.921 C18.35,17.921 17.822,17.914 17.294,17.906 L17.01,17.902 L16.546,17.944 L16.543,17.76 C16.533,17.149 16.504,16.541 16.475,15.933 L16.43,14.89 Z M16.525,19.476 C17.304,19.466 18.085,19.442 18.865,19.418 C19.586,19.396 20.307,19.373 21.028,19.362 C21.648,19.353 22.269,19.346 22.89,19.346 C23.654,19.346 24.418,19.356 25.181,19.385 L25.291,19.344 C25.4,20.383 25.494,21.424 25.579,22.463 L25.739,23.759 L25.605,23.761 C25.261,23.768 24.918,23.775 24.574,23.775 L24.19,23.772 C23.872,23.766 23.554,23.756 23.236,23.747 C22.772,23.733 22.307,23.719 21.842,23.718 L21.395,23.717 C20.792,23.717 20.189,23.723 19.587,23.736 C19.342,23.741 19.097,23.744 18.851,23.744 C18.344,23.744 17.836,23.734 17.259,23.724 L16.737,23.763 L16.726,23.449 C16.712,23.084 16.7,22.718 16.678,22.351 C16.622,21.375 16.594,20.399 16.525,19.476 Z M24.858,26.273 C24.447,26.278 24.036,26.278 23.624,26.278 L22.386,26.282 C21.649,26.282 20.915,26.258 20.177,26.228 C19.63,26.206 19.082,26.197 18.534,26.187 L16.997,26.163 L16.788,26.208 C16.775,25.909 16.767,25.611 16.72,25.361 L17.625,25.318 C17.965,25.304 18.305,25.296 18.647,25.288 L19.4,25.268 C19.953,25.252 20.506,25.237 21.059,25.23 C21.382,25.225 21.705,25.222 22.028,25.222 C22.482,25.222 22.937,25.229 23.389,25.248 L24.113,25.283 C24.623,25.308 25.133,25.335 25.642,25.342 L25.75,25.346 L25.818,25.381 L25.845,25.719 C25.861,25.908 25.877,26.1 25.91,26.256 C25.561,26.266 25.211,26.27 24.858,26.273 Z" id="Shape"></path>
                        </g>
                    </g>
                </g>
            </g>
        </g>
    </g>
</svg>